<mxfile host="app.diagrams.net" modified="2024-05-28T14:29:03.049Z" agent="Mozilla/5.0 (Windows NT 10.0; Win64; x64; rv:126.0) Gecko/20100101 Firefox/126.0" version="24.4.3" etag="2era5IXnwZv6TOTGI3-a" type="github">
  <diagram name="Page-1" id="F0JoRGXOh5iYmj_pVqa-">
    <mxGraphModel>
      <root>
        <mxCell id="0" />
        <mxCell id="1" parent="0" />
      </root>
    </mxGraphModel>
  </diagram>
</mxfile>
